<svg width="30" height="32" viewBox="0 0 30 32" fill="none" xmlns="http://www.w3.org/2000/svg">
<path d="M27.075 13.571L25.85 19.0046C24.8 23.6972 22.725 25.5951 18.825 25.2051C18.2 25.1531 17.525 25.0361 16.8 24.8541L14.7 24.3342C9.48748 23.0473 7.87498 20.3695 9.09998 14.9359L10.325 9.48932C10.575 8.38441 10.875 7.42249 11.25 6.62955C12.7125 3.4838 15.2 2.63886 19.375 3.66578L21.4625 4.17274C26.7 5.44664 28.3 8.13743 27.075 13.571Z" stroke="#ADADAD" stroke-width="1.5" stroke-linecap="round" stroke-linejoin="round"/>
<path d="M15.8 11.088L21.8625 12.6869M14.575 16.1186L18.2 17.0806M18.825 25.2049C18.05 25.7509 17.075 26.2059 15.8875 26.6088L13.9125 27.2848C8.95 28.9486 6.3375 27.5577 4.725 22.3972L3.125 17.2626C1.525 12.102 2.85 9.37218 7.8125 7.70831L9.7875 7.03236C10.3 6.86338 10.7875 6.72039 11.25 6.62939C10.875 7.42233 10.575 8.38426 10.325 9.48917L9.1 14.9357C7.875 20.3693 9.4875 23.0471 14.7 24.334L16.8 24.854C17.525 25.0359 18.2 25.1529 18.825 25.2049Z" stroke="#ADADAD" stroke-width="1.5" stroke-linecap="round" stroke-linejoin="round"/>
</svg>
