<svg width="32" height="32" viewBox="0 0 32 32" fill="none" xmlns="http://www.w3.org/2000/svg">
<path d="M16 31C24.25 31 31 24.25 31 16C31 7.75 24.25 1 16 1C7.75 1 1 7.75 1 16C1 24.25 7.75 31 16 31Z" stroke="#525fe1" stroke-width="1.5" stroke-linecap="round" stroke-linejoin="round"/>
<path d="M26 16C26 21.52 21.52 26 16 26C10.48 26 6 21.52 6 16C6 10.48 10.48 6 16 6C21.52 6 26 10.48 26 16Z" stroke="#525fe1" stroke-width="1.5" stroke-linecap="round" stroke-linejoin="round"/>
<path d="M19.7099 19.18L16.6099 17.33C16.0699 17.01 15.6299 16.24 15.6299 15.61V11.51" stroke="#525fe1" stroke-width="1.5" stroke-linecap="round" stroke-linejoin="round"/>
</svg>
