<svg width="32" height="32" viewBox="0 0 32 32" fill="none" xmlns="http://www.w3.org/2000/svg">
<path d="M16 31C24.25 31 31 24.25 31 16C31 7.75 24.25 1 16 1C7.75 1 1 7.75 1 16C1 24.25 7.75 31 16 31Z" stroke="#525fe1" stroke-width="1.5" stroke-linecap="round" stroke-linejoin="round"/>
<path d="M13.7583 18.25L15.0083 19.5L18.3416 16.1666" stroke="#525fe1" stroke-width="1.5" stroke-linecap="round" stroke-linejoin="round"/>
<path d="M14.3332 11H17.6665C19.3332 11 19.3332 10.1666 19.3332 9.33329C19.3332 7.66663 18.4998 7.66663 17.6665 7.66663H14.3332C13.4998 7.66663 12.6665 7.66663 12.6665 9.33329C12.6665 11 13.4998 11 14.3332 11Z" stroke="#525fe1" stroke-width="1.5" stroke-miterlimit="10" stroke-linecap="round" stroke-linejoin="round"/>
<path d="M19.3333 9.34998C22.1083 9.49998 23.5 10.525 23.5 14.3333V19.3333C23.5 22.6666 22.6667 24.3333 18.5 24.3333H13.5C9.33333 24.3333 8.5 22.6666 8.5 19.3333V14.3333C8.5 10.5333 9.89167 9.49998 12.6667 9.34998" stroke="#525fe1" stroke-width="1.5" stroke-miterlimit="10" stroke-linecap="round" stroke-linejoin="round"/>
</svg>
