<svg width="14" height="16" viewBox="0 0 14 16" fill="none" xmlns="http://www.w3.org/2000/svg">
<path d="M7.87807 1.82095L9.16213 4.30887C9.33807 4.65037 9.77962 4.97479 10.1427 5.01864L12.3042 5.30974C13.688 5.49291 14.0449 6.5452 13.1031 7.64741L11.4985 9.51467C11.2307 9.82759 11.0916 10.4246 11.1993 10.8343L11.7615 13.0326C12.2037 14.7683 11.3627 15.4876 9.88489 14.6351L7.82044 13.444C7.44445 13.2263 6.84723 13.2579 6.494 13.5024L4.52873 14.8653C3.12187 15.8395 2.22664 15.1982 2.53534 13.4311L2.93065 11.1947C3.00445 10.7766 2.82751 10.1933 2.53545 9.90628L0.783111 8.18434C-0.239557 7.17151 0.0355338 6.09202 1.39829 5.78597L3.52613 5.30975C3.88524 5.22617 4.3014 4.87348 4.44751 4.51463L5.53766 1.9177C6.13354 0.518522 7.18482 0.474435 7.87807 1.82095Z" fill="#EFDB25"/>
</svg>
