<svg width="16" height="17" viewBox="0 0 16 17" fill="none" xmlns="http://www.w3.org/2000/svg">
<path d="M9.07746 1.8212L10.3615 4.30913C10.5375 4.65063 10.979 4.97504 11.3421 5.01889L13.5035 5.30999C14.8874 5.49316 15.2443 6.54545 14.3025 7.64766L12.6979 9.51493C12.4301 9.82785 12.291 10.4248 12.3986 10.8345L12.9609 13.0329C13.4031 14.7685 12.5621 15.4879 11.0843 14.6354L9.01984 13.4443C8.64385 13.2265 8.04662 13.2582 7.69339 13.5027L5.72812 14.8656C4.32126 15.8398 3.42603 15.1984 3.73473 13.4313L4.13004 11.1949C4.20385 10.7769 4.0269 10.1935 3.73485 9.90654L1.99207 8.18734C0.969397 7.17451 1.24449 6.09501 2.60724 5.78897L4.73508 5.31275C5.09419 5.22917 5.51035 4.87648 5.65647 4.51763L6.74662 1.9207C7.33294 0.518775 8.38421 0.474688 9.07746 1.8212Z" stroke="#EFDB25" stroke-width="1.5" stroke-linecap="round" stroke-linejoin="round"/>
</svg>
