<svg width="32" height="32" viewBox="0 0 32 32" fill="none" xmlns="http://www.w3.org/2000/svg">
<path d="M16 31C24.25 31 31 24.25 31 16C31 7.75 24.25 1 16 1C7.75 1 1 7.75 1 16C1 24.25 7.75 31 16 31Z" stroke="#525fe1" stroke-width="1.5" stroke-linecap="round" stroke-linejoin="round"/>
<g clip-path="url(#clip0_3_1324)">
<path d="M7.6665 24.3334H24.3332" stroke="#525fe1" stroke-width="1.5" stroke-miterlimit="10" stroke-linecap="round" stroke-linejoin="round"/>
<path d="M14.125 9.33329V24.3333H17.875V9.33329C17.875 8.41663 17.5 7.66663 16.375 7.66663H15.625C14.5 7.66663 14.125 8.41663 14.125 9.33329ZM8.5 14.3333V24.3333H11.8333V14.3333C11.8333 13.4166 11.5 12.6666 10.5 12.6666H9.83333C8.83333 12.6666 8.5 13.4166 8.5 14.3333ZM20.1667 18.5V24.3333H23.5V18.5C23.5 17.5833 23.1667 16.8333 22.1667 16.8333H21.5C20.5 16.8333 20.1667 17.5833 20.1667 18.5Z" stroke="#525fe1" stroke-width="1.5" stroke-linecap="round" stroke-linejoin="round"/>
</g>
<defs>
<clipPath id="clip0_3_1324">
<rect width="20" height="20" fill="white" transform="translate(6 6)"/>
</clipPath>
</defs>
</svg>
